<svg width="120" height="120" viewBox="0 0 120 120" fill="none" xmlns="http://www.w3.org/2000/svg">
  <rect x="20" y="20" width="15" height="15" fill="#FDF4F9" rx="2"/>
  <rect x="40" y="20" width="15" height="15" fill="#C4A8D4" rx="2"/>
  <rect x="60" y="20" width="15" height="15" fill="#5BBFBA" rx="2"/>
  <rect x="80" y="20" width="15" height="15" fill="#D94B8A" rx="2"/>
  
  <rect x="20" y="40" width="15" height="15" fill="#C4A8D4" rx="2"/>
  <rect x="40" y="40" width="15" height="15" fill="#5BBFBA" rx="2"/>
  <rect x="60" y="40" width="15" height="15" fill="#D94B8A" rx="2"/>
  <rect x="80" y="40" width="15" height="15" fill="#3D1A5C" rx="2"/>
  
  <rect x="20" y="60" width="15" height="15" fill="#5BBFBA" rx="2"/>
  <rect x="40" y="60" width="15" height="15" fill="#D94B8A" rx="2"/>
  <rect x="60" y="60" width="15" height="15" fill="#C4A8D4" rx="2"/>
  <rect x="80" y="60" width="15" height="15" fill="#5BBFBA" rx="2"/>
  
  <rect x="20" y="80" width="15" height="15" fill="#D94B8A" rx="2"/>
  <rect x="40" y="80" width="15" height="15" fill="#3D1A5C" rx="2"/>
  <rect x="60" y="80" width="15" height="15" fill="#5BBFBA" rx="2"/>
  <rect x="80" y="80" width="15" height="15" fill="#FDF4F9" rx="2"/>
</svg>
